:SAMPLES-PER-SECOND 30
:FRAME-RANGE 1-3549
:FULLY-SPECIFIED
:DEGREES
1997
root  -38.5828 38.3765 12.5529 4.47931 81.7267 1.44032
RightUpLeg  -21.9584 12.5471 -21.1734
RightLeg  41.427 -1.83278 -2.0091
RightFoot  -11.7559 -0.0683607 3.14098
RightToes  1.218e-010 1.26228e-014 -6.01869e-014
Spine  -2.52561 2.66469 -0.0186007
Spine1  6.22943 4.03533 -7.02857
HEad  -16.3498 43.7697 -23.7838
LeftShoulder1  0.229734 2.44984 -20.6911
LeftArm  23.5293 -9.06623 -53.4701
LeftForeArm  27.6108 -13.24 -10.511
LeftHand  -0.0442942 4.50484 3.70606
RightShoulder  1.63293 1.90465 25.2661
RightArm  -31.2223 -2.82108 39.3296
RightForeArm  87.8564 -3.8154 -0.813861
RightHand  0.126283 -8.02198 -7.06309
LeftUpLeg  -15.315 -14.4351 3.59124
LeftLeg  28.0681 -3.6515 -1.74262
LeftFoot  -17.4523 0.000567883 -1.94951
LeftToes  -1.43952e-010 7.51141e-011 -1.22592e-011
1998
root  -38.3331 38.2797 13.6708 4.00873 86.0137 0.50206
RightUpLeg  -20.5715 17.2784 -23.9847
RightLeg  36.3983 0.176525 -0.111346
RightFoot  -10.3007 -0.0953324 2.80144
RightToes  1.218e-010 1.26228e-014 -6.01869e-014
Spine  -2.87309 2.13589 -0.331397
Spine1  6.43019 3.4082 -6.35705
HEad  -17.0651 43.0185 -24.3884
LeftShoulder1  0.312726 2.1291 -20.394
LeftArm  22.3571 -10.8196 -55.6754
LeftForeArm  29.034 -13.0567 -10.46
LeftHand  -0.0451074 4.67914 3.80467
RightShoulder  1.48446 1.3268 25.9816
RightArm  -32.5327 -5.93354 37.9326
RightForeArm  89.581 -3.57789 -1.73837
RightHand  0.115366 -8.40358 -5.8786
LeftUpLeg  -16.0921 -15.7899 6.00879
LeftLeg  28.266 -6.47804 -3.40237
LeftFoot  -18.19 -0.071497 -3.01665
LeftToes  -1.43952e-010 7.51141e-011 -1.22592e-011
1999
root  -38.0783 38.1196 14.853 -9.33661 89.738 -13.082
RightUpLeg  -19.266 21.7157 -25.977
RightLeg  33.376 3.54319 2.27327
RightFoot  -9.40838 -0.101995 2.26146
RightToes  1.218e-010 1.26228e-014 -6.01869e-014
Spine  -2.99348 1.69479 -0.537618
Spine1  6.50148 2.84971 -5.74316
HEad  -16.9246 42.9266 -24.6784
LeftShoulder1  0.310041 2.14525 -20.5428
LeftArm  23.5318 -11.6135 -56.8669
LeftForeArm  28.0403 -13.982 -9.88436
LeftHand  -0.0487227 4.59175 4.00402
RightShoulder  1.37985 0.970415 26.1991
RightArm  -33.7862 -9.07875 37.6441
RightForeArm  89.0043 -3.47662 -2.47543
RightHand  0.08571 -8.23767 -5.03431
LeftUpLeg  -16.9085 -16.3632 8.47047
LeftLeg  28.8069 -9.42942 -5.22075
LeftFoot  -18.875 -0.147255 -3.95383
LeftToes  -1.43952e-010 7.51141e-011 -1.22592e-011
2000
root  -37.8269 37.9128 16.0838 -169.961 86.6702 -173.861
RightUpLeg  -17.9257 24.4078 -26.1936
RightLeg  31.9682 6.38791 4.05329
RightFoot  -6.95226 -0.121342 1.9337
RightToes  1.218e-010 1.26228e-014 -6.01869e-014
Spine  -3.02185 1.37154 -0.262105
Spine1  6.52146 2.37424 -5.05943
HEad  -15.947 42.8764 -24.3827
LeftShoulder1  0.271064 2.30004 -20.8017
LeftArm  25.1314 -11.6227 -57.5096
LeftForeArm  26.3971 -15.2871 -9.03007
LeftHand  -0.0553532 4.42054 4.21459
RightShoulder  1.29012 0.707003 26.0606
RightArm  -33.9633 -12.1516 38.0871
RightForeArm  86.0734 -3.63961 -2.29852
RightHand  0.047177 -7.53621 -4.46484
LeftUpLeg  -17.9968 -16.784 11.2949
LeftLeg  29.6314 -12.2711 -7.10709
LeftFoot  -19.3852 -0.227237 -4.882
LeftToes  -1.43952e-010 7.51141e-011 -1.22592e-011
2001
root  -37.5829 37.507 17.5327 -173.79 82.9892 -177.951
RightUpLeg  -15.8999 23.7085 -25.718
RightLeg  30.8075 9.29977 5.72212
RightFoot  -10.4439 -0.197189 15.9681
RightToes  1.218e-010 1.26228e-014 -6.01869e-014
Spine  -3.03464 1.11155 -0.9671
Spine1  6.5173 2.01526 -4.82518
HEad  -14.5011 42.3604 -23.3598
LeftShoulder1  0.219631 2.49738 -21.046
LeftArm  26.7989 -10.997 -57.6697
LeftForeArm  24.3419 -16.9049 -7.86629
LeftHand  -0.0628976 4.23568 4.40628
RightShoulder  1.25584 0.602987 26.032
RightArm  -33.2419 -15.0974 38.9589
RightForeArm  82.3269 -3.95716 -1.42028
RightHand  0.0188423 -6.66945 -4.54132
LeftUpLeg  -19.9143 -17.3523 14.2917
LeftLeg  31.1834 -15.0481 -9.28836
LeftFoot  -20.4444 -0.380889 -6.31876
LeftToes  -1.43952e-010 7.51141e-011 -1.22592e-011
2002
root  -37.3646 37.1336 19.0479 -175.073 79.5055 -179.566
RightUpLeg  -13.6227 20.9812 -23.7363
RightLeg  30.144 10.8096 6.50057
RightFoot  -16.0116 0.764278 21.2024
RightToes  1.218e-010 1.26228e-014 -6.01869e-014
Spine  -2.96518 1.10123 -1.47116
Spine1  6.59308 1.9566 -4.71952
HEad  -13.153 41.2942 -22.2433
LeftShoulder1  0.124035 2.85656 -21.5756
LeftArm  30.04 -10.0479 -56.9032
LeftForeArm  20.8178 -19.4132 -6.04319
LeftHand  -0.0624044 4.23179 4.3378
RightShoulder  1.20338 0.389165 26.479
RightArm  -32.956 -16.9394 40.4136
RightForeArm  79.7275 -4.16989 -0.837681
RightHand  0.0139637 -6.3319 -5.27104
LeftUpLeg  -21.674 -18.56 17.4719
LeftLeg  31.5316 -17.2224 -10.7597
LeftFoot  -21.0168 -0.579885 -8.32746
LeftToes  -1.43952e-010 7.51141e-011 -1.22592e-011
2003
root  -37.1975 36.9649 20.4993 -174.285 76.2907 -179.094
RightUpLeg  -11.6923 16.907 -20.919
RightLeg  29.5163 11.2631 6.60981
RightFoot  -20.3211 1.35503 18.8668
RightToes  1.218e-010 1.26228e-014 -6.01869e-014
Spine  -2.84859 1.25729 -0.859397
Spine1  6.81214 2.13295 -4.64147
HEad  -12.1048 39.9541 -21.4672
LeftShoulder1  0.014792 3.25154 -22.2593
LeftArm  30.2088 -9.05372 -55.5229
LeftForeArm  20.2592 -21.292 -4.72687
LeftHand  -0.0680398 4.08824 4.08514
RightShoulder  1.25942 0.512506 26.9216
RightArm  -32.7655 -16.9697 42.4021
RightForeArm  78.7651 -4.28462 -0.408198
RightHand  0.0143937 -6.17879 -6.11787
LeftUpLeg  -23.0989 -19.7633 20.8315
LeftLeg  30.3589 -19.0159 -11.3356
LeftFoot  -19.8783 -0.705656 -11.02
LeftToes  -1.43952e-010 7.51141e-011 -1.22592e-011
2004
root  -37.1021 36.9212 21.9242 -173.879 73.3517 -179.117
RightUpLeg  -10.7034 12.5325 -18.2952
RightLeg  29.1227 11.3786 6.57312
RightFoot  -23.2454 1.47305 15.5632
RightToes  1.218e-010 1.26228e-014 -6.01869e-014
Spine  -2.8733 1.47952 0.018767
Spine1  7.382 2.4799 -4.89295
HEad  -11.3188 38.3423 -21.3515
LeftShoulder1  -0.0655306 3.53131 -22.6674
LeftArm  28.0912 -8.06998 -54.2303
LeftForeArm  20.3023 -22.2702 -4.22634
LeftHand  -0.0711545 3.74052 3.79868
RightShoulder  1.33581 0.729562 27.0586
RightArm  -32.5113 -14.9638 44.7138
RightForeArm  79.3349 -4.31168 -0.108145
RightHand  0.0259123 -6.29 -6.81153
LeftUpLeg  -24.6785 -20.5062 23.9686
LeftLeg  28.5921 -20.7049 -11.4881
LeftFoot  -17.1648 -0.630585 -14.3485
LeftToes  -1.43952e-010 7.51141e-011 -1.22592e-011
2005
root  -37.0534 37.034 23.2731 -173.633 70.8094 -179.335
RightUpLeg  -10.1148 10.1326 -15.6132
RightLeg  28.1379 9.70895 5.37034
RightFoot  -24.7939 1.37878 13.0731
RightToes  1.218e-010 1.26228e-014 -6.01869e-014
Spine  -3.01204 1.85342 0.847317
Spine1  7.96312 2.93755 -4.97414
HEad  -9.99952 36.741 -21.4083
LeftShoulder1  -0.0624844 3.5207 -22.6716
LeftArm  26.3991 -7.31271 -53.3783
LeftForeArm  20.2715 -22.0404 -4.30761
LeftHand  -0.0676833 3.84551 3.75399
RightShoulder  1.44943 1.10052 26.8607
RightArm  -31.6938 -11.7597 46.4988
RightForeArm  81.1877 -4.30323 0.309525
RightHand  0.0354467 -6.40035 -7.17069
LeftUpLeg  -26.0279 -20.0626 26.192
LeftLeg  26.3687 -20.7059 -10.4954
LeftFoot  -12.5782 -0.119638 -17.897
LeftToes  -1.43952e-010 7.51141e-011 -1.22592e-011
2006
root  -37.0359 37.2686 24.477 -173.507 67.973 -179.677
RightUpLeg  -9.54735 9.68573 -13.1411
RightLeg  26.6858 6.83164 3.50122
RightFoot  -25.0767 1.2593 11.8368
RightToes  1.218e-010 1.26228e-014 -6.01869e-014
Spine  -3.26891 2.07098 1.38544
Spine1  8.46206 3.06983 -4.42972
HEad  -7.73972 35.3851 -20.9877
LeftShoulder1  -0.00330225 3.31521 -22.4266
LeftArm  25.2755 -6.74358 -52.9359
LeftForeArm  21.4105 -21.235 -4.64977
LeftHand  -0.0617242 3.9589 3.50507
RightShoulder  1.50548 1.35335 26.2641
RightArm  -29.6077 -9.12011 47.4004
RightForeArm  82.6059 -4.42964 1.41847
RightHand  0.0512177 -6.6243 -7.41468
LeftUpLeg  -27.5084 -17.6388 26.1937
LeftLeg  25.5307 -17.3515 -8.5158
LeftFoot  -7.1685 0.626042 -15.924
LeftToes  -1.43952e-010 7.51141e-011 -1.22592e-011
2007
root  -37.0562 37.5848 25.4735 -173.781 64.9808 179.908
RightUpLeg  -8.83735 9.1993 -11.1517
RightLeg  25.4033 4.2355 1.96984
RightFoot  -24.1698 1.10024 11.2189
RightToes  1.218e-010 1.26228e-014 -6.01869e-014
Spine  -3.0895 2.06994 2.11378
Spine1  8.40577 2.93333 -3.81946
HEad  -5.41233 34.3666 -20.112
LeftShoulder1  0.0230723 3.22244 -22.2819
LeftArm  25.2689 -6.15592 -52.3831
LeftForeArm  22.6238 -20.678 -4.94873
LeftHand  -0.0546445 4.0406 3.03801
RightShoulder  1.52838 1.48251 25.8576
RightArm  -26.1726 -7.49685 46.7594
RightForeArm  80.362 -4.81584 3.13703
RightHand  0.0923933 -7.00245 -8.64031
LeftUpLeg  -28.5351 -15.3658 24.1995
LeftLeg  26.0908 -10.8063 -5.38238
LeftFoot  -3.97507 0.583518 -8.68395
LeftToes  -1.43952e-010 7.51141e-011 -1.22592e-011
2008
root  -37.0757 37.9378 26.3503 -174.452 62.2785 179.159
RightUpLeg  -8.07604 7.04308 -9.88665
RightLeg  23.8504 3.52056 1.48436
RightFoot  -22.7341 0.876273 10.3105
RightToes  1.218e-010 1.26228e-014 -6.01869e-014
Spine  -3.04336 2.01437 2.2246
Spine1  8.39287 2.774 -3.38046
HEad  -3.32905 33.6077 -19.1321
LeftShoulder1  0.0779469 3.02642 -21.9702
LeftArm  25.1185 -5.22053 -52.0586
LeftForeArm  23.4258 -20.0556 -5.34926
LeftHand  -0.0493187 4.03329 2.53113
RightShoulder  1.51219 1.48827 25.4628
RightArm  -23.2885 -5.8831 45.0795
RightForeArm  75.7758 -0.721039 5.07324
RightHand  0.127103 -7.04751 -10.6618
LeftUpLeg  -28.9176 -13.689 21.2073
LeftLeg  27.6444 -3.30844 -1.53844
LeftFoot  -6.52554 0.407908 -8.75983
LeftToes  -1.43952e-010 7.51141e-011 -1.22592e-011
2009
root  -37.0971 38.279 27.0659 -174.867 59.6015 178.503
RightUpLeg  -7.1638 4.94355 -8.90076
RightLeg  21.6649 2.63987 0.939897
RightFoot  -21.1308 0.691116 9.72701
RightToes  1.218e-010 1.26228e-014 -6.01869e-014
Spine  -3.25295 1.84177 2.42736
Spine1  8.22268 2.47018 -2.81907
HEad  -1.58408 32.9496 -17.5859
LeftShoulder1  0.0805931 3.01213 -21.4713
LeftArm  24.9962 -4.07033 -51.6125
LeftForeArm  23.7283 -19.9483 -5.40699
LeftHand  -0.0477254 3.73814 2.28454
RightShoulder  1.47534 1.47209 24.7622
RightArm  -22.2637 -4.31957 43.5498
RightForeArm  69.3654 3.28417 6.09358
RightHand  0.0354221 -5.94492 -11.6415
LeftUpLeg  -28.8868 -10.8903 17.0042
LeftLeg  29.6277 2.62563 1.96132
LeftFoot  -8.58826 0.255241 -8.4726
LeftToes  -1.43952e-010 7.51141e-011 -1.22592e-011
2010
root  -37.1075 38.5391 27.6795 -174.791 57.2501 178.247
RightUpLeg  -6.45927 3.20628 -7.94249
RightLeg  19.5111 1.75035 0.462991
RightFoot  -19.8096 0.540708 9.1047
RightToes  1.218e-010 1.26228e-014 -6.01869e-014
Spine  -3.50907 1.85754 3.0251
Spine1  7.81062 2.41326 -2.53584
HEad  -0.335738 31.9599 -16.0414
LeftShoulder1  0.095562 2.95553 -21.2647
LeftArm  25.9918 -3.15809 -50.5344
LeftForeArm  22.8212 -20.6104 -5.00144
LeftHand  -0.0502374 3.58503 2.08598
RightShoulder  1.45055 1.52426 23.8686
RightArm  -22.6798 -3.43314 42.3665
RightForeArm  59.9071 6.07873 6.42889
RightHand  -0.14753 -4.05407 -11.6344
LeftUpLeg  -28.469 -6.71652 12.4988
LeftLeg  31.5592 5.50329 3.98607
LeftFoot  -9.53479 0.188671 -8.33818
LeftToes  -1.43952e-010 7.51141e-011 -1.22592e-011
2011
root  -37.1151 38.6969 28.2286 -174.408 54.8553 178.304
RightUpLeg  -6.02587 -0.254386 -6.94739
RightLeg  17.919 2.63505 0.333378
RightFoot  -18.9747 0.420161 8.21741
RightToes  1.218e-010 1.26228e-014 -6.01869e-014
Spine  -3.83061 1.90088 3.84387
Spine1  7.64685 2.44211 -2.52588
HEad  0.105127 30.497 -14.7204
LeftShoulder1  0.0665975 3.05796 -20.8963
LeftArm  26.1914 -2.85364 -49.6944
LeftForeArm  22.1608 -20.9651 -4.80238
LeftHand  -0.0516652 3.65 2.24541
RightShoulder  1.41513 1.50298 23.2263
RightArm  -23.5023 -2.44128 41.11
RightForeArm  49.4185 7.47898 6.33622
RightHand  -0.306892 -2.28678 -11.2124
LeftUpLeg  -27.8891 -3.73557 8.74054
LeftLeg  33.0819 6.12479 4.63352
LeftFoot  -9.94869 0.159239 -8.19482
LeftToes  -1.43952e-010 7.51141e-011 -1.22592e-011
